<svg width="1053" height="82" viewBox="0 0 1053 82" fill="none" xmlns="http://www.w3.org/2000/svg">
<path d="M20.7411 65.5632C33.3432 65.5632 42.7948 58.0728 42.7948 44.5019V2.64368H28.7924V44.5019C28.7924 48.2912 26.9546 51.8161 20.8286 51.8161C16.1028 51.8161 14.0899 49.9655 12.1646 46.5287L0 53.5785C4.02569 61.4214 11.0269 65.5632 20.7411 65.5632Z" fill="#2B2F33"/>
<path d="M63.7403 47.5862H94.8081C95.1582 45.9119 95.3332 44.1494 95.3332 42.2988C95.3332 28.9923 85.8816 19.0345 73.1044 19.0345C59.277 19.0345 49.8254 29.1686 49.8254 42.2988C49.8254 55.4291 59.102 65.5632 74.0671 65.5632C82.381 65.5632 88.8571 62.4789 93.1453 56.4866L82.6435 50.4061C80.8932 52.3448 77.8302 53.7548 74.2421 53.7548C69.4288 53.7548 65.4031 52.1686 63.7403 47.5862ZM63.4778 37.7165C64.703 33.2222 68.0285 30.7548 73.0169 30.7548C76.9551 30.7548 80.8932 32.6054 82.2935 37.7165H63.4778Z" fill="#2B2F33"/>
<path d="M127.139 32.9578V20.2682H118.125V7.93103L104.997 11.8965V20.2682H97.9963V32.9578H104.997V48.5555C104.997 60.8927 109.986 66.0919 127.139 64.3295V52.3448C121.363 52.6973 118.125 52.3448 118.125 48.5555V32.9578H127.139Z" fill="#2B2F33"/>
<path d="M180.934 2.64368H157.742V64.3295H171.745V44.9425H180.934C193.011 44.9425 202.375 35.5134 202.375 23.7931C202.375 12.0728 193.011 2.64368 180.934 2.64368ZM180.934 31.7241H171.745V15.8621H180.934C185.222 15.8621 188.373 19.2988 188.373 23.7931C188.373 28.2874 185.222 31.7241 180.934 31.7241Z" fill="#2B2F33"/>
<path d="M221.198 28.1111V20.2682H208.07V64.3295H221.198V44.4138C221.198 35.6897 228.899 33.4866 234.325 34.3678V19.387C228.811 19.387 222.948 22.2069 221.198 28.1111Z" fill="#2B2F33"/>
<path d="M260.183 65.5632C273.047 65.5632 283.374 55.4291 283.374 42.2988C283.374 29.1686 273.047 19.0345 260.183 19.0345C247.318 19.0345 236.991 29.1686 236.991 42.2988C236.991 55.4291 247.318 65.5632 260.183 65.5632ZM260.183 52.6973C254.494 52.6973 250.118 48.5555 250.118 42.2988C250.118 36.0421 254.494 31.9004 260.183 31.9004C265.871 31.9004 270.247 36.0421 270.247 42.2988C270.247 48.5555 265.871 52.6973 260.183 52.6973Z" fill="#2B2F33"/>
<path d="M316.966 19.0345C311.103 19.0345 306.815 21.0613 303.927 24.41V20.2682H290.799V81.954H303.927V60.1877C306.815 63.5364 311.103 65.5632 316.966 65.5632C328.431 65.5632 337.882 55.4291 337.882 42.2988C337.882 29.1686 328.431 19.0345 316.966 19.0345ZM314.341 53.0498C308.302 53.0498 303.927 48.908 303.927 42.2988C303.927 35.6896 308.302 31.5479 314.341 31.5479C320.379 31.5479 324.755 35.6896 324.755 42.2988C324.755 48.908 320.379 53.0498 314.341 53.0498Z" fill="#2B2F33"/>
<path d="M373.593 20.2682V44.3257C373.593 50.5824 370.267 53.4023 365.454 53.4023C361.253 53.4023 357.84 50.8467 357.84 45.3831V20.2682H344.713V47.3218C344.713 59.2184 352.239 65.5632 361.078 65.5632C366.854 65.5632 371.23 63.4483 373.593 60.1877V64.3295H386.72V20.2682H373.593Z" fill="#2B2F33"/>
<path d="M396.347 64.3295H409.474V0H396.347V64.3295Z" fill="#2B2F33"/>
<path d="M431.08 33.1341C431.08 31.5479 432.481 30.6667 434.756 30.6667C437.644 30.6667 439.394 32.2529 440.619 34.5441L451.821 28.4636C448.146 22.2069 441.845 19.0345 434.756 19.0345C425.654 19.0345 417.603 23.8812 417.603 33.4866C417.603 48.7318 439.132 46.1762 439.132 51.023C439.132 52.7854 437.556 53.7548 434.406 53.7548C430.555 53.7548 428.105 51.9042 426.967 48.5555L415.59 55.0766C419.003 62.2146 425.654 65.5632 434.406 65.5632C443.857 65.5632 452.609 61.2452 452.609 51.1111C452.609 34.8084 431.08 38.1571 431.08 33.1341Z" fill="#2B2F33"/>
<path d="M465.727 16.3908C470.015 16.3908 473.603 12.7778 473.603 8.45977C473.603 4.14176 470.015 0.528735 465.727 0.528735C461.438 0.528735 457.85 4.14176 457.85 8.45977C457.85 12.7778 461.438 16.3908 465.727 16.3908ZM459.163 64.3295H472.29V20.2682H459.163V64.3295Z" fill="#2B2F33"/>
<path d="M502.9 65.5632C515.765 65.5632 526.092 55.4291 526.092 42.2988C526.092 29.1686 515.765 19.0345 502.9 19.0345C490.035 19.0345 479.709 29.1686 479.709 42.2988C479.709 55.4291 490.035 65.5632 502.9 65.5632ZM502.9 52.6973C497.212 52.6973 492.836 48.5555 492.836 42.2988C492.836 36.0421 497.212 31.9004 502.9 31.9004C508.588 31.9004 512.964 36.0421 512.964 42.2988C512.964 48.5555 508.588 52.6973 502.9 52.6973Z" fill="#2B2F33"/>
<path d="M559.158 19.0345C553.382 19.0345 549.007 21.1494 546.644 24.41V20.2682H533.517V64.3295H546.644V40.272C546.644 34.0153 549.969 31.1954 554.783 31.1954C558.983 31.1954 562.397 33.751 562.397 39.2146V64.3295H575.524V37.2759C575.524 25.3793 567.997 19.0345 559.158 19.0345Z" fill="#2B2F33"/>
<path d="M620.857 50.7586V2.64368H606.855V64.3295H642.736V50.7586H620.857Z" fill="#2B2F33"/>
<path d="M679.806 20.2682V24.41C676.918 21.0613 672.63 19.0345 666.766 19.0345C655.302 19.0345 645.85 29.1686 645.85 42.2988C645.85 55.4291 655.302 65.5632 666.766 65.5632C672.63 65.5632 676.918 63.5364 679.806 60.1877V64.3295H692.933V20.2682H679.806ZM669.392 53.0498C663.353 53.0498 658.978 48.908 658.978 42.2988C658.978 35.6896 663.353 31.5479 669.392 31.5479C675.43 31.5479 679.806 35.6896 679.806 42.2988C679.806 48.908 675.43 53.0498 669.392 53.0498Z" fill="#2B2F33"/>
<path d="M728.731 19.0345C722.868 19.0345 718.579 21.0613 715.691 24.41V2.64368H702.564V64.3295H715.691V60.1877C718.579 63.5364 722.868 65.5632 728.731 65.5632C740.196 65.5632 749.647 55.4291 749.647 42.2988C749.647 29.1686 740.196 19.0345 728.731 19.0345ZM726.106 53.0498C720.067 53.0498 715.691 48.908 715.691 42.2988C715.691 35.6896 720.067 31.5479 726.106 31.5479C732.144 31.5479 736.52 35.6896 736.52 42.2988C736.52 48.908 732.144 53.0498 726.106 53.0498Z" fill="#2B2F33"/>
<path d="M778.094 65.5632C790.958 65.5632 801.285 55.4291 801.285 42.2988C801.285 29.1686 790.958 19.0345 778.094 19.0345C765.229 19.0345 754.902 29.1686 754.902 42.2988C754.902 55.4291 765.229 65.5632 778.094 65.5632ZM778.094 52.6973C772.405 52.6973 768.029 48.5555 768.029 42.2988C768.029 36.0421 772.405 31.9004 778.094 31.9004C783.782 31.9004 788.158 36.0421 788.158 42.2988C788.158 48.5555 783.782 52.6973 778.094 52.6973Z" fill="#2B2F33"/>
<path d="M821.837 28.1111V20.2682H808.71V64.3295H821.837V44.4138C821.837 35.6897 829.539 33.4866 834.965 34.3678V19.387C829.451 19.387 823.588 22.2069 821.837 28.1111Z" fill="#2B2F33"/>
<path d="M871.587 20.2682V24.41C868.699 21.0613 864.411 19.0345 858.547 19.0345C847.083 19.0345 837.631 29.1686 837.631 42.2988C837.631 55.4291 847.083 65.5632 858.547 65.5632C864.411 65.5632 868.699 63.5364 871.587 60.1877V64.3295H884.714V20.2682H871.587ZM861.173 53.0498C855.134 53.0498 850.758 48.908 850.758 42.2988C850.758 35.6896 855.134 31.5479 861.173 31.5479C867.211 31.5479 871.587 35.6896 871.587 42.2988C871.587 48.908 867.211 53.0498 861.173 53.0498Z" fill="#2B2F33"/>
<path d="M919.987 32.9578V20.2682H910.973V7.93103L897.846 11.8965V20.2682H890.844V32.9578H897.846V48.5555C897.846 60.8927 902.834 66.0919 919.987 64.3295V52.3448C914.211 52.6973 910.973 52.3448 910.973 48.5555V32.9578H919.987Z" fill="#2B2F33"/>
<path d="M947.568 65.5632C960.433 65.5632 970.76 55.4291 970.76 42.2988C970.76 29.1686 960.433 19.0345 947.568 19.0345C934.704 19.0345 924.377 29.1686 924.377 42.2988C924.377 55.4291 934.704 65.5632 947.568 65.5632ZM947.568 52.6973C941.88 52.6973 937.504 48.5555 937.504 42.2988C937.504 36.0421 941.88 31.9004 947.568 31.9004C953.257 31.9004 957.633 36.0421 957.633 42.2988C957.633 48.5555 953.257 52.6973 947.568 52.6973Z" fill="#2B2F33"/>
<path d="M991.312 28.1111V20.2682H978.185V64.3295H991.312V44.4138C991.312 35.6897 999.014 33.4866 1004.44 34.3678V19.387C998.926 19.387 993.063 22.2069 991.312 28.1111Z" fill="#2B2F33"/>
<path d="M1039 20.2682L1030.77 47.2337L1021.06 20.2682H1006.62L1024.03 62.3027C1022.11 67.6782 1019.22 69.6168 1013.09 69.6168V81.954C1025.35 82.5709 1033.13 77.0191 1038.04 63.0076L1053 20.2682H1039Z" fill="#2B2F33"/>
</svg>
