<svg width="1630" height="124" viewBox="0 0 1630 124" fill="none" xmlns="http://www.w3.org/2000/svg">
<path d="M87.2881 3.94067H67.3366L43.6441 44.7924L19.9516 3.94067H0V95.8898H19.9516V42.428L42.5218 81.4407H44.7664L67.3366 42.428V95.8898H87.2881V3.94067Z" fill="#FCFFFF"/>
<path d="M118.377 70.9322H162.644C163.143 68.4364 163.392 65.8093 163.392 63.0508C163.392 43.2161 149.925 28.3729 131.719 28.3729C112.017 28.3729 98.5499 43.4788 98.5499 63.0508C98.5499 82.6229 111.768 97.7288 133.091 97.7288C144.937 97.7288 154.165 93.1314 160.275 84.1992L145.311 75.1356C142.817 78.0254 138.453 80.1271 133.34 80.1271C126.482 80.1271 120.746 77.7627 118.377 70.9322ZM118.003 56.2203C119.748 49.5212 124.487 45.8432 131.595 45.8432C137.206 45.8432 142.817 48.6017 144.813 56.2203H118.003Z" fill="#FCFFFF"/>
<path d="M203.32 97.7288C215.54 97.7288 226.14 91.0297 231.502 80.7839L215.166 70.9322C213.171 75.5297 208.557 78.2881 203.071 78.2881C194.965 78.2881 188.98 72.1144 188.98 63.0508C188.98 53.9873 194.965 47.8136 203.071 47.8136C208.557 47.8136 213.046 50.572 215.166 55.1695L231.502 45.1864C226.14 35.072 215.416 28.3729 203.32 28.3729C184.366 28.3729 170.275 43.4788 170.275 63.0508C170.275 82.6229 184.366 97.7288 203.32 97.7288Z" fill="#FCFFFF"/>
<path d="M275.566 28.3729C267.336 28.3729 261.101 31.5254 257.734 36.3856V3.94067H239.029V95.8898H257.734V60.0297C257.734 50.7034 262.472 46.5 269.331 46.5C275.316 46.5 280.179 50.3093 280.179 58.4534V95.8898H298.884V55.5636C298.884 37.8305 288.16 28.3729 275.566 28.3729Z" fill="#FCFFFF"/>
<path d="M356.994 30.2119V36.3856C352.879 31.3941 346.769 28.3729 338.414 28.3729C322.079 28.3729 308.611 43.4788 308.611 63.0508C308.611 82.6229 322.079 97.7288 338.414 97.7288C346.769 97.7288 352.879 94.7076 356.994 89.7161V95.8898H375.698V30.2119H356.994ZM342.155 79.0763C333.551 79.0763 327.316 72.9025 327.316 63.0508C327.316 53.1992 333.551 47.0254 342.155 47.0254C350.759 47.0254 356.994 53.1992 356.994 63.0508C356.994 72.9025 350.759 79.0763 342.155 79.0763Z" fill="#FCFFFF"/>
<path d="M425.957 28.3729C417.727 28.3729 411.492 31.5254 408.126 36.3856V30.2119H389.421V95.8898H408.126V60.0297C408.126 50.7034 412.864 46.5 419.723 46.5C425.708 46.5 430.571 50.3093 430.571 58.4534V95.8898H449.276V55.5636C449.276 37.8305 438.552 28.3729 425.957 28.3729Z" fill="#FCFFFF"/>
<path d="M471.473 24.4322C477.583 24.4322 482.696 19.0466 482.696 12.6102C482.696 6.17373 477.583 0.788133 471.473 0.788133C465.363 0.788133 460.25 6.17373 460.25 12.6102C460.25 19.0466 465.363 24.4322 471.473 24.4322ZM462.121 95.8898H480.825V30.2119H462.121V95.8898Z" fill="#FCFFFF"/>
<path d="M524.44 97.7288C536.66 97.7288 547.26 91.0297 552.622 80.7839L536.286 70.9322C534.291 75.5297 529.677 78.2881 524.191 78.2881C516.085 78.2881 510.1 72.1144 510.1 63.0508C510.1 53.9873 516.085 47.8136 524.191 47.8136C529.677 47.8136 534.166 50.572 536.286 55.1695L552.622 45.1864C547.26 35.072 536.536 28.3729 524.44 28.3729C505.486 28.3729 491.395 43.4788 491.395 63.0508C491.395 82.6229 505.486 97.7288 524.44 97.7288Z" fill="#FCFFFF"/>
<path d="M604.197 30.2119V36.3856C600.082 31.3941 593.971 28.3729 585.617 28.3729C569.281 28.3729 555.814 43.4788 555.814 63.0508C555.814 82.6229 569.281 97.7288 585.617 97.7288C593.971 97.7288 600.082 94.7076 604.197 89.7161V95.8898H622.901V30.2119H604.197ZM589.358 79.0763C580.754 79.0763 574.519 72.9025 574.519 63.0508C574.519 53.1992 580.754 47.0254 589.358 47.0254C597.962 47.0254 604.197 53.1992 604.197 63.0508C604.197 72.9025 597.962 79.0763 589.358 79.0763Z" fill="#FCFFFF"/>
<path d="M636.624 95.8898H655.328V0H636.624V95.8898Z" fill="#FCFFFF"/>
<path d="M720.765 75.661V59.3729H751.94V39.4068H720.765V24.1695H755.057V3.94067H700.814V95.8898H755.681V75.661H720.765Z" fill="#FCFFFF"/>
<path d="M802.85 28.3729C794.62 28.3729 788.385 31.5254 785.019 36.3856V30.2119H766.314V95.8898H785.019V60.0297C785.019 50.7034 789.757 46.5 796.615 46.5C802.601 46.5 807.464 50.3093 807.464 58.4534V95.8898H826.169V55.5636C826.169 37.8305 815.445 28.3729 802.85 28.3729Z" fill="#FCFFFF"/>
<path d="M884.777 30.2119V36.911C880.662 31.5254 874.677 28.3729 866.572 28.3729C848.865 28.3729 835.896 43.6102 835.896 61.7373C835.896 79.8644 848.865 95.1017 866.572 95.1017C874.677 95.1017 880.662 91.9492 884.777 86.5636V92.6059C884.777 101.932 879.415 106.661 870.687 106.661C862.457 106.661 858.84 102.983 856.471 98.3856L840.51 108.106C846.246 118.877 857.095 124 870.063 124C886.648 124 902.983 114.674 902.983 92.6059V30.2119H884.777ZM869.689 76.9746C860.835 76.9746 854.601 70.8009 854.601 61.7373C854.601 52.6737 860.835 46.5 869.689 46.5C878.542 46.5 884.777 52.6737 884.777 61.7373C884.777 70.8009 878.542 76.9746 869.689 76.9746Z" fill="#FCFFFF"/>
<path d="M926.058 24.4322C932.168 24.4322 937.281 19.0466 937.281 12.6102C937.281 6.17373 932.168 0.788133 926.058 0.788133C919.948 0.788133 914.835 6.17373 914.835 12.6102C914.835 19.0466 919.948 24.4322 926.058 24.4322ZM916.706 95.8898H935.41V30.2119H916.706V95.8898Z" fill="#FCFFFF"/>
<path d="M985.634 28.3729C977.404 28.3729 971.169 31.5254 967.802 36.3856V30.2119H949.098V95.8898H967.802V60.0297C967.802 50.7034 972.541 46.5 979.399 46.5C985.385 46.5 990.248 50.3093 990.248 58.4534V95.8898H1008.95V55.5636C1008.95 37.8305 998.228 28.3729 985.634 28.3729Z" fill="#FCFFFF"/>
<path d="M1038.51 70.9322H1082.77C1083.27 68.4364 1083.52 65.8093 1083.52 63.0508C1083.52 43.2161 1070.06 28.3729 1051.85 28.3729C1032.15 28.3729 1018.68 43.4788 1018.68 63.0508C1018.68 82.6229 1031.9 97.7288 1053.22 97.7288C1065.07 97.7288 1074.29 93.1314 1080.41 84.1992L1065.44 75.1356C1062.95 78.0254 1058.58 80.1271 1053.47 80.1271C1046.61 80.1271 1040.88 77.7627 1038.51 70.9322ZM1038.13 56.2203C1039.88 49.5212 1044.62 45.8432 1051.72 45.8432C1057.34 45.8432 1062.95 48.6017 1064.94 56.2203H1038.13Z" fill="#FCFFFF"/>
<path d="M1110.23 70.9322H1154.5C1155 68.4364 1155.25 65.8093 1155.25 63.0508C1155.25 43.2161 1141.78 28.3729 1123.57 28.3729C1103.87 28.3729 1090.41 43.4788 1090.41 63.0508C1090.41 82.6229 1103.62 97.7288 1124.95 97.7288C1136.79 97.7288 1146.02 93.1314 1152.13 84.1992L1137.17 75.1356C1134.67 78.0254 1130.31 80.1271 1125.2 80.1271C1118.34 80.1271 1112.6 77.7627 1110.23 70.9322ZM1109.86 56.2203C1111.6 49.5212 1116.34 45.8432 1123.45 45.8432C1129.06 45.8432 1134.67 48.6017 1136.67 56.2203H1109.86Z" fill="#FCFFFF"/>
<path d="M1184.56 41.9025V30.2119H1165.86V95.8898H1184.56V66.2034C1184.56 53.1992 1195.53 49.9152 1203.27 51.2288V28.8983C1195.41 28.8983 1187.06 33.1017 1184.56 41.9025Z" fill="#FCFFFF"/>
<path d="M1281.99 97.7288C1297.96 97.7288 1311.92 89.4534 1319.4 76.4492L1302.2 65.9407C1298.46 73.0339 1290.85 77.2373 1281.99 77.2373C1266.53 77.2373 1256.56 66.3347 1256.56 49.9153C1256.56 33.4958 1266.53 22.5932 1281.99 22.5932C1290.85 22.5932 1298.33 26.7966 1302.2 33.8898L1319.4 23.3814C1311.8 10.3771 1297.83 2.10169 1281.99 2.10169C1255.68 2.10169 1236.6 22.8559 1236.6 49.9153C1236.6 76.9746 1255.68 97.7288 1281.99 97.7288Z" fill="#FCFFFF"/>
<path d="M1358.67 97.7288C1377 97.7288 1391.71 82.6229 1391.71 63.0508C1391.71 43.4788 1377 28.3729 1358.67 28.3729C1340.34 28.3729 1325.62 43.4788 1325.62 63.0508C1325.62 82.6229 1340.34 97.7288 1358.67 97.7288ZM1358.67 78.5509C1350.56 78.5509 1344.33 72.3771 1344.33 63.0508C1344.33 53.7246 1350.56 47.5508 1358.67 47.5508C1366.77 47.5508 1373.01 53.7246 1373.01 63.0508C1373.01 72.3771 1366.77 78.5509 1358.67 78.5509Z" fill="#FCFFFF"/>
<path d="M1402.92 66.072H1450.3V47.1568H1402.92V66.072Z" fill="#FCFFFF"/>
<path d="M1506.91 97.7288C1531.98 97.7288 1552.3 76.9746 1552.3 49.9153C1552.3 22.8559 1531.98 2.10169 1506.91 2.10169C1481.85 2.10169 1461.52 22.8559 1461.52 49.9153C1461.52 76.9746 1481.85 97.7288 1506.91 97.7288ZM1506.91 77.2373C1492.7 77.2373 1481.47 66.3347 1481.47 49.9153C1481.47 33.4958 1492.7 22.5932 1506.91 22.5932C1521.13 22.5932 1532.35 33.4958 1532.35 49.9153C1532.35 66.3347 1521.13 77.2373 1506.91 77.2373Z" fill="#FCFFFF"/>
<path d="M1600.2 28.3729C1591.84 28.3729 1585.73 31.3941 1581.62 36.3856V30.2119H1562.91V122.161H1581.62V89.7161C1585.73 94.7076 1591.84 97.7288 1600.2 97.7288C1616.53 97.7288 1630 82.6229 1630 63.0508C1630 43.4788 1616.53 28.3729 1600.2 28.3729ZM1596.46 79.0763C1587.85 79.0763 1581.62 72.9025 1581.62 63.0508C1581.62 53.1992 1587.85 47.0254 1596.46 47.0254C1605.06 47.0254 1611.3 53.1992 1611.3 63.0508C1611.3 72.9025 1605.06 79.0763 1596.46 79.0763Z" fill="#FCFFFF"/>
</svg>
